<svg width="100" height="100" viewBox="0 0 100 100" fill="none" xmlns="http://www.w3.org/2000/svg">
<circle cx="50" cy="50" r="50" fill="#FFBC57"/>
<path fill-rule="evenodd" clip-rule="evenodd" d="M60.4969 24.1835C60.8684 24.4106 61.0949 24.8146 61.0949 25.25V47.6297C61.0949 48.3201 60.5353 48.8797 59.8449 48.8797C59.1546 48.8797 58.5949 48.3201 58.5949 47.6297V27.2947L55.0173 29.1271C54.6556 29.3124 54.2263 29.3102 53.8664 29.1213L49.1816 26.6618L44.4969 29.1213C44.133 29.3123 43.6986 29.3123 43.3348 29.1213L38.65 26.6618L33.9652 29.1213C33.5973 29.3145 33.1574 29.3122 32.7916 29.1151L29.5 27.3428V67.8954L32.9134 66.018C33.2885 65.8117 33.7431 65.8117 34.1182 66.018L38.7816 68.5829L43.4451 66.018C44.05 65.6853 44.81 65.906 45.1427 66.5109C45.4754 67.1158 45.2548 67.8759 44.6499 68.2086L39.384 71.1048C39.0089 71.3111 38.5544 71.3111 38.1792 71.1048L33.5158 68.5399L28.8524 71.1048C28.4652 71.3177 27.9942 71.3104 27.6138 71.0855C27.2334 70.8605 27 70.4514 27 70.0095V25.25C27 24.81 27.2313 24.4025 27.609 24.1769C27.9867 23.9512 28.4552 23.9408 28.8426 24.1494L33.3916 26.5989L38.069 24.1433C38.4328 23.9523 38.8672 23.9523 39.231 24.1433L43.9158 26.6028L48.6006 24.1433C48.9644 23.9523 49.3989 23.9523 49.7627 24.1433L54.4546 26.6065L59.2751 24.1374C59.6626 23.939 60.1255 23.9564 60.4969 24.1835Z" fill="white"/>
<path fill-rule="evenodd" clip-rule="evenodd" d="M38.8477 37.0981C38.8477 36.4077 39.4073 35.8481 40.0977 35.8481H53.2622C53.9526 35.8481 54.5122 36.4077 54.5122 37.0981C54.5122 37.7884 53.9526 38.3481 53.2622 38.3481H40.0977C39.4073 38.3481 38.8477 37.7884 38.8477 37.0981Z" fill="white"/>
<path fill-rule="evenodd" clip-rule="evenodd" d="M32.2656 50.2626C32.2656 49.5723 32.8253 49.0126 33.5156 49.0126H49.3131C50.0034 49.0126 50.5631 49.5723 50.5631 50.2626C50.5631 50.953 50.0034 51.5126 49.3131 51.5126H33.5156C32.8253 51.5126 32.2656 50.953 32.2656 50.2626Z" fill="white"/>
<path fill-rule="evenodd" clip-rule="evenodd" d="M32.2656 55.5285C32.2656 54.8381 32.8253 54.2785 33.5156 54.2785H42.7308C43.4212 54.2785 43.9808 54.8381 43.9808 55.5285C43.9808 56.2189 43.4212 56.7785 42.7308 56.7785H33.5156C32.8253 56.7785 32.2656 56.2189 32.2656 55.5285Z" fill="white"/>
<path fill-rule="evenodd" clip-rule="evenodd" d="M38.8477 42.364C38.8477 41.6736 39.4073 41.114 40.0977 41.114H49.3128C50.0032 41.114 50.5628 41.6736 50.5628 42.364C50.5628 43.0543 50.0032 43.614 49.3128 43.614H40.0977C39.4073 43.614 38.8477 43.0543 38.8477 42.364Z" fill="white"/>
<path fill-rule="evenodd" clip-rule="evenodd" d="M32.2656 37.0981C32.2656 36.4077 32.8253 35.8481 33.5156 35.8481H36.1485C36.8389 35.8481 37.3985 36.4077 37.3985 37.0981C37.3985 37.7884 36.8389 38.3481 36.1485 38.3481H33.5156C32.8253 38.3481 32.2656 37.7884 32.2656 37.0981Z" fill="white"/>
<path fill-rule="evenodd" clip-rule="evenodd" d="M32.2656 42.364C32.2656 41.6736 32.8253 41.114 33.5156 41.114H36.1485C36.8389 41.114 37.3985 41.6736 37.3985 42.364C37.3985 43.0543 36.8389 43.614 36.1485 43.614H33.5156C32.8253 43.614 32.2656 43.0543 32.2656 42.364Z" fill="white"/>
<path fill-rule="evenodd" clip-rule="evenodd" d="M58.5278 52.8291C52.6746 52.8291 47.9297 57.574 47.9297 63.4272C47.9297 69.2804 52.6746 74.0253 58.5278 74.0253C64.381 74.0253 69.1259 69.2804 69.1259 63.4272C69.1259 57.574 64.381 52.8291 58.5278 52.8291ZM45.4297 63.4272C45.4297 56.1933 51.2939 50.3291 58.5278 50.3291C65.7617 50.3291 71.6259 56.1933 71.6259 63.4272C71.6259 70.6611 65.7617 76.5253 58.5278 76.5253C51.2939 76.5253 45.4297 70.6611 45.4297 63.4272Z" fill="white"/>
<path fill-rule="evenodd" clip-rule="evenodd" d="M57.213 59.4114C56.4552 59.4114 55.8301 60.0365 55.8301 60.7943C55.8301 61.552 56.4552 62.1772 57.213 62.1772H59.8459C61.9844 62.1772 63.7288 63.9217 63.7288 66.0601C63.7288 68.1986 61.9844 69.943 59.8459 69.943H54.5801C53.8897 69.943 53.3301 69.3834 53.3301 68.693C53.3301 68.0027 53.8897 67.443 54.5801 67.443H59.8459C60.6036 67.443 61.2288 66.8179 61.2288 66.0601C61.2288 65.3024 60.6036 64.6772 59.8459 64.6772H57.213C55.0745 64.6772 53.3301 62.9327 53.3301 60.7943C53.3301 58.6558 55.0745 56.9114 57.213 56.9114H62.4788C63.1692 56.9114 63.7288 57.471 63.7288 58.1614C63.7288 58.8517 63.1692 59.4114 62.4788 59.4114H57.213Z" fill="white"/>
<path fill-rule="evenodd" clip-rule="evenodd" d="M63.8594 63.4272C63.8594 62.7369 64.419 62.1772 65.1094 62.1772H67.7423C68.4326 62.1772 68.9923 62.7369 68.9923 63.4272C68.9923 64.1176 68.4326 64.6772 67.7423 64.6772H65.1094C64.419 64.6772 63.8594 64.1176 63.8594 63.4272Z" fill="white"/>
<path fill-rule="evenodd" clip-rule="evenodd" d="M48.0625 63.4272C48.0625 62.7369 48.6221 62.1772 49.3125 62.1772H51.9454C52.6358 62.1772 53.1954 62.7369 53.1954 63.4272C53.1954 64.1176 52.6358 64.6772 51.9454 64.6772H49.3125C48.6221 64.6772 48.0625 64.1176 48.0625 63.4272Z" fill="white"/>
</svg>
